<?xml version="1.0" encoding="utf-8"?>
<!-- Generator: Adobe Illustrator 25.2.1, SVG Export Plug-In . SVG Version: 6.00 Build 0)  -->
<svg version="1.1" id="Layer_1" xmlns="http://www.w3.org/2000/svg" xmlns:xlink="http://www.w3.org/1999/xlink" x="0px" y="0px"
	 viewBox="0 0 283 370.2" style="enable-background:new 0 0 283 370.2;" xml:space="preserve">
<style type="text/css">
	.st0{fill:#FBD870;}
	.st1{display:none;}
	.st2{display:inline;fill:#FBD870;}
</style>
<g>
	<path class="st0" d="M201.8,225.6l47.3,47.3c2.7,2.7,4.2,6.3,4.2,10v60.3c0,7.8-6.4,14.2-14.2,14.2h-75.7
		c-7.8,0-14.2-6.4-14.2-14.2V215.5c0-7.8-6.4-14.2-14.2-14.2c-7.8,0-14.2,6.4-14.2,14.2v127.7c0,7.8-6.4,14.2-14.2,14.2h-8.3
		c-3.8,0-7.4-1.5-10-4.2L21,285.9c-2.7-2.7-4.2-6.3-4.2-10l0-244.8c0-7.8,6.4-14.2,14.2-14.2h140.7c3.8,0,7.4,1.5,10,4.2l67.3,67.3
		c2.7,2.7,4.2,6.3,4.2,10v88.8c0,7.8-6.4,14.2-14.2,14.2h-27.2C199.2,201.4,192.9,216.7,201.8,225.6z M149.2,59.5
		c0-7.8-6.4-14.2-14.2-14.2c-7.8,0-14.2,6.4-14.2,14.2v99.3c0,7.8,6.3,14.2,14.2,14.2c7.8,0,14.2-6.4,14.2-14.2V59.5z"/>
</g>
<g class="st1">
	<path class="st2" d="M135,450.6c-71.1,0-138-27.7-188.3-78s-78-117.2-78-188.3c0-71.1,27.7-138,78-188.3
		C-3-54.4,63.9-82.1,135-82.1s138,27.7,188.3,78c50.3,50.3,78,117.2,78,188.3c0,71.1-27.7,138-78,188.3
		C273,422.9,206.1,450.6,135,450.6z M135-77.1c-144.1,0-261.4,117.2-261.4,261.4c0,144.1,117.2,261.4,261.4,261.4
		c144.1,0,261.4-117.2,261.4-261.4C396.4,40.1,279.1-77.1,135-77.1z"/>
</g>
</svg>
