<?xml version="1.0" encoding="utf-8"?>
<!-- Generator: Adobe Illustrator 25.2.1, SVG Export Plug-In . SVG Version: 6.00 Build 0)  -->
<svg version="1.1" xmlns="http://www.w3.org/2000/svg" xmlns:xlink="http://www.w3.org/1999/xlink" x="0px" y="0px"
	 viewBox="0 0 743 119" style="enable-background:new 0 0 743 119;" xml:space="preserve">
<style type="text/css">
	.st0{fill:none;}
	.st1{display:none;fill:#FBD870;}
	.st2{font-family:'WildWorldBOLD';}
	.st3{font-size:67px;}
	.st4{letter-spacing:3;}
	.st5{fill:#FBD870;}
	.st6{display:none;fill:none;stroke:#FBD870;stroke-width:2;stroke-miterlimit:10;}
</style>
<g id="Layer_1">
	<rect x="-80.8" y="-356.5" class="st0" width="871.8" height="115.5"/>
	<text transform="matrix(1 0 0 1 -64.9307 -293.5391)" style="display:none;"><tspan x="0" y="0" style="display:inline;fill:#FBD870; font-family:'MADESoulmazeOutline-Italic'; font-size:90px; letter-spacing:9;">REEF</tspan><tspan x="289.8" y="0" style="display:inline;fill:#FBD870; font-family:'MADESoulmaze-Italic'; font-size:90px; letter-spacing:9;"> </tspan><tspan x="324" y="0" style="display:inline;fill:#FBD870; font-family:'MADESoulmazeOutline-Italic'; font-size:90px; letter-spacing:9;">MATSON</tspan></text>
	<rect x="-88.8" y="-195.5" class="st0" width="871.8" height="115.5"/>
	
		<text transform="matrix(1 0 0 1 -72.9307 -132.5391)" class="st1" style="font-family:'MADESoulmaze-Italic'; font-size:90px; letter-spacing:9;">REEF MATSON</text>
	<rect x="-88.8" y="-11.5" class="st0" width="871.8" height="115.5"/>
	<text transform="matrix(1 0 0 1 -62.3496 28.585)" class="st1 st2 st3 st4">REEF MATSON</text>
	<g>
		<path class="st5" d="M56,64.9l11.7,11.7c0.7,0.7,1,1.5,1,2.5V94c0,1.9-1.6,3.5-3.5,3.5H46.6c-1.9,0-3.5-1.6-3.5-3.5V62.5
			c0-1.9-1.6-3.5-3.5-3.5c-1.9,0-3.5,1.6-3.5,3.5V94c0,1.9-1.6,3.5-3.5,3.5h-2.1c-0.9,0-1.8-0.4-2.5-1L11.4,79.8
			c-0.7-0.7-1-1.5-1-2.5l0-60.4c0-1.9,1.6-3.5,3.5-3.5h34.7c0.9,0,1.8,0.4,2.5,1l16.6,16.6c0.7,0.7,1,1.5,1,2.5v21.9
			c0,1.9-1.6,3.5-3.5,3.5h-6.7C55.4,59,53.8,62.7,56,64.9z M43.1,24c0-1.9-1.6-3.5-3.5-3.5S36.1,22,36.1,24v24.5
			c0,1.9,1.6,3.5,3.5,3.5s3.5-1.6,3.5-3.5V24z"/>
		<path class="st5" d="M137.2,79.1V94c0,1.9-1.6,3.5-3.5,3.5l-34.8,0c-0.9,0-1.8-0.4-2.5-1L79.8,79.8c-0.7-0.7-1-1.5-1-2.5V17
			c0-1.9,1.6-3.5,3.5-3.5H117c0.9,0,1.8,0.4,2.5,1l16.6,16.6c0.7,0.7,1,1.5,1,2.5v7.9c0,1.9-1.6,3.5-3.5,3.5H115
			c-1.9,0-3.5-1.6-3.5-3.5V24c0-1.9-1.6-3.5-3.5-3.5s-3.5,1.6-3.5,3.5v24.5c0,1.9,1.6,3.5,3.5,3.5s3.5,1.6,3.5,3.5v0
			c0,1.9-1.6,3.5-3.5,3.5s-3.5,1.6-3.5,3.5V87c0,1.9,1.6,3.5,3.5,3.5s3.5-1.6,3.5-3.5V69.4c0-1.9,1.6-3.5,3.5-3.5h9
			c0.9,0,1.8,0.4,2.5,1l9.7,9.7C136.8,77.2,137.2,78.1,137.2,79.1z"/>
		<path class="st5" d="M204.8,79.1V94c0,1.9-1.6,3.5-3.5,3.5l-34.8,0c-0.9,0-1.8-0.4-2.5-1l-16.6-16.6c-0.7-0.7-1-1.5-1-2.5V17
			c0-1.9,1.6-3.5,3.5-3.5h34.7c0.9,0,1.8,0.4,2.5,1l16.6,16.6c0.7,0.7,1,1.5,1,2.5v7.9c0,1.9-1.6,3.5-3.5,3.5h-18.7
			c-1.9,0-3.5-1.6-3.5-3.5V24c0-1.9-1.6-3.5-3.5-3.5s-3.5,1.6-3.5,3.5v24.5c0,1.9,1.6,3.5,3.5,3.5s3.5,1.6,3.5,3.5v0
			c0,1.9-1.6,3.5-3.5,3.5s-3.5,1.6-3.5,3.5V87c0,1.9,1.6,3.5,3.5,3.5s3.5-1.6,3.5-3.5V69.4c0-1.9,1.6-3.5,3.5-3.5h9
			c0.9,0,1.8,0.4,2.5,1l9.7,9.7C204.5,77.2,204.8,78.1,204.8,79.1z"/>
		<path class="st5" d="M272.5,33.6v7.9c0,1.9-1.6,3.5-3.5,3.5h-18.7c-1.9,0-3.5-1.6-3.5-3.5V24c0-1.9-1.6-3.5-3.5-3.5
			c-1.9,0-3.5,1.6-3.5,3.5v24.5c0,1.9,1.6,3.5,3.5,3.5c1.9,0,3.5,1.6,3.5,3.5v0c0,1.9-1.6,3.5-3.5,3.5c-1.9,0-3.5,1.6-3.5,3.5V94
			c0,1.9-1.6,3.5-3.5,3.5h-2.1c-0.9,0-1.8-0.4-2.5-1l-16.6-16.6c-0.7-0.7-1-1.5-1-2.5V17c0-1.9,1.6-3.5,3.5-3.5h34.7
			c0.9,0,1.8,0.4,2.5,1l16.6,16.6C272.1,31.8,272.5,32.6,272.5,33.6z"/>
		<path class="st5" d="M413.5,33.6V94c0,1.9-1.6,3.5-3.5,3.5h-18.7c-1.9,0-3.5-1.6-3.5-3.5V24c0-1.9-1.6-3.5-3.5-3.5
			c-1.9,0-3.5,1.6-3.5,3.5v70c0,1.9-1.6,3.5-3.5,3.5h-18.7c-1.9,0-3.5-1.6-3.5-3.5V24c0-1.9-1.6-3.5-3.5-3.5c-1.9,0-3.5,1.6-3.5,3.5
			v70c0,1.9-1.6,3.5-3.5,3.5h-2.1c-0.9,0-1.8-0.4-2.5-1l-16.6-16.6c-0.7-0.7-1-1.5-1-2.5V17c0-1.9,1.6-3.5,3.5-3.5h67.4
			c0.9,0,1.8,0.4,2.5,1l16.6,16.6C413.1,31.8,413.5,32.7,413.5,33.6z"/>
		<path class="st5" d="M482.5,33.6V94c0,1.9-1.6,3.5-3.5,3.5h-18.7c-1.9,0-3.5-1.6-3.5-3.5V62.5c0-1.9-1.6-3.5-3.5-3.5
			c-1.9,0-3.5,1.6-3.5,3.5V94c0,1.9-1.6,3.5-3.5,3.5h-2c-0.9,0-1.8-0.4-2.5-1l-16.6-16.6c-0.7-0.7-1-1.5-1-2.5V17
			c0-1.9,1.6-3.5,3.5-3.5h34.7c0.9,0,1.8,0.4,2.5,1l16.6,16.6C482.1,31.8,482.5,32.6,482.5,33.6z M456.8,24c0-1.9-1.6-3.5-3.5-3.5
			c-1.9,0-3.5,1.6-3.5,3.5v24.5c0,1.9,1.6,3.5,3.5,3.5c1.9,0,3.5-1.6,3.5-3.5V24z"/>
		<path class="st5" d="M527.4,17c0,1.9-1.6,3.5-3.5,3.5c-1.9,0-3.5,1.6-3.5,3.5v70c0,1.9-1.6,3.5-3.5,3.5h-2c-0.9,0-1.8-0.4-2.5-1
			l-16.6-16.6c-0.7-0.7-1-1.5-1-2.5V24c0-1.9-1.6-3.5-3.5-3.5c-1.9,0-3.5-1.6-3.5-3.5s1.6-3.5,3.5-3.5h32.7
			C525.8,13.5,527.4,15,527.4,17z"/>
		<path class="st5" d="M568.2,41.5V24c0-1.9-1.6-3.5-3.5-3.5c-1.9,0-3.5,1.6-3.5,3.5v24.5c0,1.9,1.6,3.5,3.5,3.5h25.7
			c1.9,0,3.5,1.6,3.5,3.5V94c0,1.9-1.6,3.5-3.5,3.5h-34.7c-0.9,0-1.8-0.4-2.5-1l-16.6-16.6c-0.7-0.7-1-1.5-1-2.5v-7.9
			c0-1.9,1.6-3.5,3.5-3.5h18.7c1.9,0,3.5,1.6,3.5,3.5V87c0,1.9,1.6,3.5,3.5,3.5c1.9,0,3.5-1.6,3.5-3.5V62.5c0-1.9-1.6-3.5-3.5-3.5
			H539c-1.9,0-3.5-1.6-3.5-3.5V17c0-1.9,1.6-3.5,3.5-3.5h34.7c0.9,0,1.8,0.4,2.5,1l16.6,16.6c0.7,0.7,1,1.5,1,2.5v7.9
			c0,1.9-1.6,3.5-3.5,3.5h-18.7C569.7,45,568.2,43.4,568.2,41.5z"/>
		<path class="st5" d="M662.6,33.6V94c0,1.9-1.6,3.5-3.5,3.5h-34.7c-0.9,0-1.8-0.4-2.5-1l-16.6-16.6c-0.7-0.7-1-1.5-1-2.5V17
			c0-1.9,1.6-3.5,3.5-3.5h34.7c0.9,0,1.8,0.4,2.5,1l16.6,16.6C662.2,31.8,662.6,32.7,662.6,33.6z M636.9,24c0-1.9-1.6-3.5-3.5-3.5
			s-3.5,1.6-3.5,3.5v63c0,1.9,1.6,3.5,3.5,3.5s3.5-1.6,3.5-3.5V24z"/>
		<path class="st5" d="M731.6,33.6V94c0,1.9-1.6,3.5-3.5,3.5h-18.7c-1.9,0-3.5-1.6-3.5-3.5V24c0-1.9-1.6-3.5-3.5-3.5
			c-1.9,0-3.5,1.6-3.5,3.5v70c0,1.9-1.6,3.5-3.5,3.5h-2c-0.9,0-1.8-0.4-2.5-1l-16.6-16.6c-0.7-0.7-1-1.5-1-2.5V17
			c0-1.9,1.6-3.5,3.5-3.5l34.7,0c0.9,0,1.8,0.4,2.5,1l16.6,16.6C731.2,31.8,731.6,32.7,731.6,33.6z"/>
	</g>
	<rect x="-258.8" y="249.5" class="st0" width="871.8" height="115.5"/>
	
		<text transform="matrix(1 0 0 1 -53.9448 322.3008)" class="st1" style="font-family:'LeatherBound-Regular'; font-size:120px; letter-spacing:6;">reef matson</text>
	<rect x="164" y="380" class="st0" width="175" height="170"/>
	
		<text transform="matrix(1 0 0 1 217.5015 531.7485)" class="st1" style="font-family:'LeatherBound-Regular'; font-size:250px; letter-spacing:12;">r</text>
	<circle class="st6" cx="247" cy="475" r="83"/>
	<circle class="st6" cx="518" cy="475" r="83"/>
	<rect x="447.8" y="434.8" class="st0" width="145.7" height="112.3"/>
	
		<text transform="matrix(1 0 0 1 475.3193 515.3027)" class="st1" style="font-family:'MADESoulmaze-Italic'; font-size:115px; letter-spacing:11;">R</text>
	<line class="st0" x1="-148" y1="-6" x2="-153" y2="-6"/>
</g>
<g id="Layer_2">
</g>
</svg>
