<?xml version="1.0" encoding="UTF-8" standalone="no"?>
<svg xmlns:dc="http://purl.org/dc/elements/1.1/" xmlns:cc="http://creativecommons.org/ns#" xmlns:rdf="http://www.w3.org/1999/02/22-rdf-syntax-ns#" xmlns:svg="http://www.w3.org/2000/svg" xmlns="http://www.w3.org/2000/svg" xmlns:sodipodi="http://sodipodi.sourceforge.net/DTD/sodipodi-0.dtd" xmlns:inkscape="http://www.inkscape.org/namespaces/inkscape" version="1.1" id="svg2" xml:space="preserve" width="907.08002" height="907.08002" viewBox="0 0 907.08002 907.08002" sodipodi:docname="WonderHorse-White.eps"><metadata id="metadata8"><rdf:RDF><cc:Work rdf:about=""><dc:format>image/svg+xml</dc:format><dc:type rdf:resource="http://purl.org/dc/dcmitype/StillImage"/></cc:Work></rdf:RDF></metadata><defs id="defs6"/><sodipodi:namedview pagecolor="#ffffff" bordercolor="#666666" borderopacity="1" objecttolerance="10" gridtolerance="10" guidetolerance="10" inkscape:pageopacity="0" inkscape:pageshadow="2" inkscape:window-width="640" inkscape:window-height="480" id="namedview4"/><g id="g10" inkscape:groupmode="layer" inkscape:label="ink_ext_XXXXXX" transform="matrix(1.3333333,0,0,-1.3333333,0,907.08)"><g id="g12" transform="scale(0.1)"><path d="m 6236.2,3401.55 c 0,1565.53 -1269.12,2834.65 -2834.67,2834.65 -1565.52,0 -2834.635,-1269.12 -2834.635,-2834.65 0,-1565.53 1269.115,-2834.64 2834.635,-2834.64 1565.55,0 2834.67,1269.11 2834.67,2834.64" style="fill:#ffffff;fill-opacity:1;fill-rule:nonzero;stroke:none" id="path16"/><path d="M 4552.69,4743.9 3885.95,5015.52 3666.92,3661.53 3441.49,4831.65 3209.85,3671.28 2996.94,5015.52 2330.28,4743.9 2552.49,3262.28 2435.91,2232.06 l 857.38,-444.5 148.2,497.89 197.52,-497.89 807.99,444.5 -116.56,1030.22 222.25,1481.62" style="fill:#231f20;fill-opacity:1;fill-rule:nonzero;stroke:none" id="path18"/><path d="m 1609.72,5240.35 218.36,-108.71 1.3,1.35 -39.8,65.7 -79.43,154.8 77.5,79.7 12.11,-11.76 198.61,-404.89 -44.86,-46.12 -199.65,96.6 -1.29,-1.33 102.11,-196.92 -43.11,-44.3 -411.56,185.94 -12.09,11.77 78.81,81.04 157.4,-74.67 66.76,-37.92 1.33,1.34 -115.59,214.36 c 12.17,12.53 20.9,21.49 33.09,34.02" style="fill:#231f20;fill-opacity:1;fill-rule:nonzero;stroke:none" id="path20"/><path d="m 2486.55,5590.69 c -69.51,141.15 -266.07,44.34 -196.56,-96.8 70.02,-142.26 266.6,-45.46 196.56,96.8 z m -299.61,-147.55 c -133.49,271.08 268.64,469.08 402.11,198.04 133.75,-271.64 -268.36,-469.66 -402.11,-198.04" style="fill:#231f20;fill-opacity:1;fill-rule:nonzero;stroke:none" id="path22"/><path d="m 3113.27,5759.93 21.15,-213.76 c -38.51,-3.81 -77.07,-7.63 -114.96,-11.4 l -43.24,436.87 40.35,3.99 241.29,-193.2 -21.07,213.14 c 37.89,3.73 75.8,7.49 113.69,11.26 l 43.12,-435.62 -39.74,-3.94 -240.59,192.66" style="fill:#231f20;fill-opacity:1;fill-rule:nonzero;stroke:none" id="path24"/><path d="m 3922.94,5606.22 51.27,-13.66 c 134.55,-35.88 194.67,189.79 60.16,225.65 l -51.31,13.67 z m 25.06,-112.01 -159.28,42.45 112.56,422.35 159.28,-42.45 c 274.8,-74.53 162.89,-494.49 -112.56,-422.35" style="fill:#231f20;fill-opacity:1;fill-rule:nonzero;stroke:none" id="path26"/><path d="m 4874.19,5421.99 c -54.28,35.66 -81.45,53.48 -135.22,88.83 l -33.92,-51.68 124.22,-81.64 c -18.19,-27.65 -36.35,-55.31 -54.55,-82.98 l -124.2,81.65 c -14.08,-21.41 -27.81,-42.28 -42.19,-64.22 53.77,-35.32 85.04,-55.9 139.88,-91.93 -17.85,-27.13 -36.36,-55.33 -54.53,-82.98 -85.6,56.26 -148.26,97.42 -232.81,152.97 80.23,122.15 160.53,244.3 240.08,365.38 84.57,-55.54 142.52,-93.64 228.12,-149.89 -17.85,-27.15 -36.36,-55.34 -54.88,-83.51" style="fill:#231f20;fill-opacity:1;fill-rule:nonzero;stroke:none" id="path28"/><path d="m 5371.3,4920.61 c -15.47,21.17 -32.66,42.61 -48.63,63.43 -28.25,-21.65 -57.99,-44.44 -85.73,-65.7 l 48.62,-63.44 c 36.85,-48.08 124,14.77 85.74,65.71 z m -146.51,-336.47 -12.89,-9.87 -75.93,99.12 56.5,137.7 -35.29,46.11 -102.11,-78.25 c -22.78,29.74 -45.96,59.96 -67.99,88.72 115.47,88.48 230.94,176.98 346.91,265.85 38.34,-50.07 77.86,-101.61 116.59,-152.14 103.94,-136.69 -41.12,-287.18 -167.82,-245.02 l -57.97,-152.22" style="fill:#231f20;fill-opacity:1;fill-rule:nonzero;stroke:none" id="path30"/><path d="m 1719.29,1547.34 c -26.55,27.32 -53.11,54.65 -79.65,81.95 l 125.86,122.29 -94.01,96.74 -125.84,-122.29 c -26.54,27.32 -53.53,55.09 -79.61,81.94 l 313.48,304.61 c 26.13,-26.85 53.11,-54.59 79.65,-81.94 l -113.77,-110.5 94,-96.74 113.75,110.49 c 26.55,-27.32 53.11,-54.62 79.65,-81.94 l -313.51,-304.61" style="fill:#231f20;fill-opacity:1;fill-rule:nonzero;stroke:none" id="path32"/><path d="m 2670.81,1246.4 c 57.13,146.61 -147.13,226.18 -204.22,79.52 -57.6,-147.78 146.64,-227.35 204.22,-79.52 z m -311.31,121.23 c 109.69,281.65 527.5,118.91 417.79,-162.74 -109.9,-282.21 -527.73,-119.48 -417.79,162.74" style="fill:#231f20;fill-opacity:1;fill-rule:nonzero;stroke:none" id="path34"/><path d="m 3543.17,1249.36 c -26.23,-0.56 -53.65,-2.4 -79.84,-3.55 1.58,-35.54 3.28,-74.21 4.8,-109.15 l 79.85,3.52 c 60.51,2.66 58.85,111.36 -4.81,109.18 z m 191.9,-312.79 0.74,-16.218 -124.77,-5.512 -80.5,125.2 -58.03,-2.57 5.66,-128.482 c -37.42,-1.66 -75.46,-3.328 -111.64,-4.937 -6.42,145.349 -12.81,290.659 -19.24,436.629 62.99,2.81 127.86,5.66 191.49,8.46 171.56,6.93 211.85,-198.16 104.75,-277.87 l 91.54,-134.7" style="fill:#231f20;fill-opacity:1;fill-rule:nonzero;stroke:none" id="path36"/><path d="m 4506.49,1296.24 c -13.06,27.7 -48.73,18.43 -89.33,2.04 -88.77,-34.35 -159.12,-31.64 -200.78,53.65 -83.91,168.96 223.28,314.02 301.56,142.42 -35.57,-16.81 -61.56,-29.07 -96,-45.35 -24.8,52.55 -128.82,-2.13 -110.09,-50.61 11.89,-30.99 44.18,-23.34 81.64,-10.47 82.5,28.58 164.88,52.99 211.56,-45.82 78.38,-166.02 -242.17,-320.83 -322.05,-145.86 33.9,16 63.26,29.87 97.71,46.14 23.73,-50.26 147.66,7.59 125.78,53.86" style="fill:#231f20;fill-opacity:1;fill-rule:nonzero;stroke:none" id="path38"/><path d="m 5130.19,2054.89 c -44.26,-47.52 -66.39,-71.31 -110.22,-118.4 l 45.24,-42.13 101.28,108.79 c 24.24,-22.56 48.48,-45.08 72.7,-67.64 L 5137.92,1826.7 c 18.75,-17.45 37.03,-34.47 56.23,-52.36 43.83,47.11 69.36,74.53 114.04,122.52 23.77,-22.09 48.48,-45.1 72.7,-67.64 -69.79,-74.99 -120.84,-129.87 -189.81,-203.88 -106.95,99.56 -213.94,199.12 -320.04,297.85 68.97,74.04 116.2,124.81 186.02,199.78 23.75,-22.13 48.42,-45.08 73.13,-68.08" style="fill:#231f20;fill-opacity:1;fill-rule:nonzero;stroke:none" id="path40"/></g></g></svg>